<svg width="16" height="16" viewBox="0 0 16 16" fill="none" xmlns="http://www.w3.org/2000/svg">
<path opacity="0.6" d="M4.66683 14.6668H2.66683C2.31321 14.6668 1.97407 14.5264 1.72402 14.2763C1.47397 14.0263 1.3335 13.6871 1.3335 13.3335V8.66683C1.3335 8.31321 1.47397 7.97407 1.72402 7.72402C1.97407 7.47397 2.31321 7.3335 2.66683 7.3335H4.66683M9.3335 6.00016V3.3335C9.3335 2.80306 9.12278 2.29436 8.74771 1.91928C8.37264 1.54421 7.86393 1.3335 7.3335 1.3335L4.66683 7.3335V14.6668H12.1868C12.5084 14.6705 12.8204 14.5578 13.0654 14.3495C13.3105 14.1412 13.4719 13.8514 13.5202 13.5335L14.4402 7.5335C14.4692 7.3424 14.4563 7.14728 14.4024 6.96166C14.3485 6.77604 14.2549 6.60436 14.1281 6.45851C14.0012 6.31265 13.8442 6.19612 13.6679 6.11697C13.4915 6.03783 13.3001 5.99797 13.1068 6.00016H9.3335Z" stroke="#2F2F2F" stroke-width="1.2" stroke-linecap="round" stroke-linejoin="round"/>
</svg>
