<svg width="15" height="16" viewBox="0 0 15 16" fill="none" xmlns="http://www.w3.org/2000/svg">
<path opacity="0.6" d="M10.7887 1.33317H12.7887C13.1424 1.33317 13.4815 1.47365 13.7315 1.72369C13.9816 1.97374 14.1221 2.31288 14.1221 2.6665V7.33317C14.1221 7.68679 13.9816 8.02593 13.7315 8.27598C13.4815 8.52603 13.1424 8.6665 12.7887 8.6665H10.7887M6.12207 9.99984V12.6665C6.12207 13.1969 6.33278 13.7056 6.70786 14.0807C7.08293 14.4558 7.59164 14.6665 8.12207 14.6665L10.7887 8.6665V1.33317H3.26874C2.94718 1.32954 2.63515 1.44223 2.39013 1.6505C2.14511 1.85877 1.98362 2.14857 1.9354 2.4665L1.0154 8.4665C0.986398 8.6576 0.999287 8.85272 1.05318 9.03834C1.10707 9.22396 1.20067 9.39564 1.3275 9.54149C1.45433 9.68735 1.61135 9.80388 1.78769 9.88303C1.96403 9.96217 2.15546 10.002 2.34874 9.99984H6.12207Z" stroke="#2F2F2F" stroke-width="1.2" stroke-linecap="round" stroke-linejoin="round"/>
</svg>
